<svg xmlns="http://www.w3.org/2000/svg" width="900" height="1200" viewBox="0 0 900 1200">
  <rect width="900" height="1200" fill="#eef5f2"/>
  <g transform="translate(162 84)">
    <rect width="576" height="1032" rx="44" fill="#fbfcf6"/>
    <text x="54" y="92" font-family="Arial, sans-serif" font-size="38" font-weight="700" fill="#183c34">家庭</text>
    <text x="54" y="130" font-family="Arial, sans-serif" font-size="18" fill="#6e8379">阳台和客厅的植物由 3 位成员共同维护</text>
    <g transform="translate(54 190)">
      <rect width="468" height="160" rx="24" fill="#1e473d"/>
      <text x="28" y="48" font-family="Arial, sans-serif" font-size="21" font-weight="700" fill="#fffaf2">邀请家人</text>
      <text x="28" y="82" font-family="Arial, sans-serif" font-size="16" fill="#cee4d6">邀请码 7 天内有效</text>
      <rect x="28" y="104" width="190" height="34" rx="17" fill="#f1c567"/>
      <text x="60" y="127" font-family="Arial, sans-serif" font-size="17" font-weight="700" fill="#17342f">GARDEN-42</text>
    </g>
    <g transform="translate(54 398)">
      <rect width="468" height="96" rx="20" fill="#edf4ee"/>
      <circle cx="48" cy="48" r="28" fill="#90bfa6"/>
      <text x="92" y="40" font-family="Arial, sans-serif" font-size="20" font-weight="700" fill="#183c34">Wang</text>
      <text x="92" y="68" font-family="Arial, sans-serif" font-size="15" fill="#6e8379">管理员 · 刚刚完成浇水</text>
    </g>
    <g transform="translate(54 518)">
      <rect width="468" height="96" rx="20" fill="#f3f5ec"/>
      <circle cx="48" cy="48" r="28" fill="#b9d6df"/>
      <text x="92" y="40" font-family="Arial, sans-serif" font-size="20" font-weight="700" fill="#183c34">Mom</text>
      <text x="92" y="68" font-family="Arial, sans-serif" font-size="15" fill="#6e8379">成员 · 通知已开启</text>
    </g>
    <g transform="translate(54 638)">
      <rect width="468" height="96" rx="20" fill="#f3f5ec"/>
      <circle cx="48" cy="48" r="28" fill="#e3c178"/>
      <text x="92" y="40" font-family="Arial, sans-serif" font-size="20" font-weight="700" fill="#183c34">Dad</text>
      <text x="92" y="68" font-family="Arial, sans-serif" font-size="15" fill="#6e8379">成员 · 待开启通知</text>
    </g>
    <g transform="translate(54 806)">
      <text x="0" y="0" font-family="Arial, sans-serif" font-size="21" font-weight="700" fill="#183c34">同步状态</text>
      <line x1="0" y1="46" x2="468" y2="46" stroke="#d7e4d9" stroke-width="2"/>
      <circle cx="70" cy="46" r="14" fill="#3f8b68"/>
      <circle cx="234" cy="46" r="14" fill="#3f8b68"/>
      <circle cx="398" cy="46" r="14" fill="#3f8b68"/>
      <text x="0" y="96" font-family="Arial, sans-serif" font-size="16" fill="#6e8379">所有成员看到同一批植物和待办。</text>
    </g>
  </g>
</svg>
